<svg height="50" id="svg8" version="1.1" viewBox="0 0 24 24" width="50" xmlns="http://www.w3.org/2000/svg" xmlns:cc="http://creativecommons.org/ns#" xmlns:dc="http://purl.org/dc/elements/1.1/" xmlns:rdf="http://www.w3.org/1999/02/22-rdf-syntax-ns#" xmlns:svg="http://www.w3.org/2000/svg">
  <defs id="defs2">
    <rect height="7.0346723" id="rect2504" width="7.9207187" x="-1.1008456" y="289.81766"/>
  </defs>
  <g id="g2090" style="display:inline;stroke-width:0.260993;stroke-miterlimit:4;stroke-dasharray:none" transform="matrix(3.8636835,0,0,3.7996219,-41.155833,-1064.2136)">
    <path d="m 51.998047,-38.550781 -0.332031,0.28125 c 0,0 -4.058598,3.3816 -4.058594,7.777343 -3e-6,0.706445 0.0659,1.594593 0.160156,2.501954 l -0.123047,0.07422 -2.769531,1.683594 v 2.960938 h 4.353516 0.324218 v 1.863281 h 0.65625 c -0.09072,0.326803 -0.142576,0.678862 -0.142578,1.052734 0,1.632052 1.638672,2.695313 1.638672,2.695313 l 0.292969,0.214844 0.302734,-0.214844 c 0,0 1.636719,-1.063261 1.636719,-2.695313 0,-0.373872 -0.05371,-0.725931 -0.146484,-1.052734 h 0.652343 v -1.908203 h 0.671875 v 0.0078 h 0.498047 3.509766 v -2.923828 l -2.769531,-1.683594 -0.123047,-0.07422 c 0.09425,-0.907331 0.160159,-1.795532 0.160156,-2.501954 4e-6,-4.395743 -4.060547,-7.777343 -4.060547,-7.777343 z m -0.505859,5.527343 h 1.011718 v 0.498047 0.267579 h 0.748047 0.505859 v 0.99414 h -0.505859 -2 v 0.757813 h 2.505859 v 2.74414 h -1.253906 v 0.267578 0.498047 h -1.011718 v -0.498047 -0.267578 h -0.746094 -0.50586 v -0.99414 h 0.50586 2.007812 v -0.763672 h -2.513672 v -2.738281 h 1.251954 v -0.267579 z m 4.617187,6.119141 2.009766,1.228516 v 1.373047 h -2.50586 -0.04492 c 0.229121,-0.713929 0.400243,-1.601225 0.535157,-2.544922 0.0027,-0.01888 0.0032,-0.03773 0.0059,-0.05664 z m -8.222656,0.0059 c 0.0024,0.01697 0.0034,0.03383 0.0059,0.05078 0.137097,0.958948 0.310116,1.862449 0.544922,2.582031 H 45.88676 v -1.410156 z m 2.677734,3.582032 h 2.867188 v 0.921875 h -2.867188 z" id="path1837" fill="#ffffff" transform="matrix(0.25882037,0,0,0.26318408,0.29950176,290.61092)"/>
    <path d="m 11.775391,284.83008 v 0.13086 0.52929 0.13086 h 0.261718 v -0.13086 -0.52929 -0.13086 z" id="path2016" fill="#ffffff" style="color:#000000;font-style:normal;font-variant:normal;font-weight:normal;font-stretch:normal;font-size:medium;line-height:normal;font-family:sans-serif;font-variant-ligatures:normal;font-variant-position:normal;font-variant-caps:normal;font-variant-numeric:normal;font-variant-alternates:normal;font-variant-east-asian:normal;font-feature-settings:normal;font-variation-settings:normal;text-indent:0;text-align:start;text-decoration:none;text-decoration-line:none;text-decoration-style:solid;text-decoration-color:#000000;letter-spacing:normal;word-spacing:normal;text-transform:none;writing-mode:lr-tb;direction:ltr;text-orientation:mixed;dominant-baseline:auto;baseline-shift:baseline;text-anchor:start;white-space:normal;shape-padding:0;shape-margin:0;inline-size:0;clip-rule:nonzero;display:inline;overflow:visible;visibility:visible;opacity:1;isolation:auto;mix-blend-mode:normal;color-interpolation:sRGB;color-interpolation-filters:linearRGB;solid-color:#000000;solid-opacity:1;vector-effect:none;fill:#000000;fill-opacity:1;fill-rule:nonzero;stroke:none;stroke-linecap:square;stroke-linejoin:miter;stroke-miterlimit:4;stroke-dasharray:none;stroke-dashoffset:0;stroke-opacity:1;color-rendering:auto;image-rendering:auto;shape-rendering:auto;text-rendering:auto;enable-background:accumulate;stop-color:#000000;stop-opacity:1"/>
    <path d="m 12.4375,284.83008 v 0.13086 0.52929 0.13086 h 0.259766 v -0.13086 -0.52929 -0.13086 z" id="path2018" fill="#ffffff" style="color:#000000;font-style:normal;font-variant:normal;font-weight:normal;font-stretch:normal;font-size:medium;line-height:normal;font-family:sans-serif;font-variant-ligatures:normal;font-variant-position:normal;font-variant-caps:normal;font-variant-numeric:normal;font-variant-alternates:normal;font-variant-east-asian:normal;font-feature-settings:normal;font-variation-settings:normal;text-indent:0;text-align:start;text-decoration:none;text-decoration-line:none;text-decoration-style:solid;text-decoration-color:#000000;letter-spacing:normal;word-spacing:normal;text-transform:none;writing-mode:lr-tb;direction:ltr;text-orientation:mixed;dominant-baseline:auto;baseline-shift:baseline;text-anchor:start;white-space:normal;shape-padding:0;shape-margin:0;inline-size:0;clip-rule:nonzero;display:inline;overflow:visible;visibility:visible;opacity:1;isolation:auto;mix-blend-mode:normal;color-interpolation:sRGB;color-interpolation-filters:linearRGB;solid-color:#000000;solid-opacity:1;vector-effect:none;fill:#000000;fill-opacity:1;fill-rule:nonzero;stroke:none;stroke-linecap:square;stroke-linejoin:miter;stroke-miterlimit:4;stroke-dasharray:none;stroke-dashoffset:0;stroke-opacity:1;color-rendering:auto;image-rendering:auto;shape-rendering:auto;text-rendering:auto;enable-background:accumulate;stop-color:#000000;stop-opacity:1"/>
    <path d="m 14.818359,284.83008 v 0.13086 0.52929 0.13086 h 0.261719 v -0.13086 -0.52929 -0.13086 z" id="path2024" fill="#ffffff" style="color:#000000;font-style:normal;font-variant:normal;font-weight:normal;font-stretch:normal;font-size:medium;line-height:normal;font-family:sans-serif;font-variant-ligatures:normal;font-variant-position:normal;font-variant-caps:normal;font-variant-numeric:normal;font-variant-alternates:normal;font-variant-east-asian:normal;font-feature-settings:normal;font-variation-settings:normal;text-indent:0;text-align:start;text-decoration:none;text-decoration-line:none;text-decoration-style:solid;text-decoration-color:#000000;letter-spacing:normal;word-spacing:normal;text-transform:none;writing-mode:lr-tb;direction:ltr;text-orientation:mixed;dominant-baseline:auto;baseline-shift:baseline;text-anchor:start;white-space:normal;shape-padding:0;shape-margin:0;inline-size:0;clip-rule:nonzero;display:inline;overflow:visible;visibility:visible;opacity:1;isolation:auto;mix-blend-mode:normal;color-interpolation:sRGB;color-interpolation-filters:linearRGB;solid-color:#000000;solid-opacity:1;vector-effect:none;fill:#000000;fill-opacity:1;fill-rule:nonzero;stroke:none;stroke-linecap:square;stroke-linejoin:miter;stroke-miterlimit:4;stroke-dasharray:none;stroke-dashoffset:0;stroke-opacity:1;color-rendering:auto;image-rendering:auto;shape-rendering:auto;text-rendering:auto;enable-background:accumulate;stop-color:#000000;stop-opacity:1"/>
    <path d="m 15.480469,284.83008 v 0.13086 0.52929 0.13086 h 0.259765 v -0.13086 -0.52929 -0.13086 z" id="path2026" fill="#ffffff" style="color:#000000;font-style:normal;font-variant:normal;font-weight:normal;font-stretch:normal;font-size:medium;line-height:normal;font-family:sans-serif;font-variant-ligatures:normal;font-variant-position:normal;font-variant-caps:normal;font-variant-numeric:normal;font-variant-alternates:normal;font-variant-east-asian:normal;font-feature-settings:normal;font-variation-settings:normal;text-indent:0;text-align:start;text-decoration:none;text-decoration-line:none;text-decoration-style:solid;text-decoration-color:#000000;letter-spacing:normal;word-spacing:normal;text-transform:none;writing-mode:lr-tb;direction:ltr;text-orientation:mixed;dominant-baseline:auto;baseline-shift:baseline;text-anchor:start;white-space:normal;shape-padding:0;shape-margin:0;inline-size:0;clip-rule:nonzero;display:inline;overflow:visible;visibility:visible;opacity:1;isolation:auto;mix-blend-mode:normal;color-interpolation:sRGB;color-interpolation-filters:linearRGB;solid-color:#000000;solid-opacity:1;vector-effect:none;fill:#000000;fill-opacity:1;fill-rule:nonzero;stroke:none;stroke-linecap:square;stroke-linejoin:miter;stroke-miterlimit:4;stroke-dasharray:none;stroke-dashoffset:0;stroke-opacity:1;color-rendering:auto;image-rendering:auto;shape-rendering:auto;text-rendering:auto;enable-background:accumulate;stop-color:#000000;stop-opacity:1"/>
  </g>
</svg>
